<svg xmlns="http://www.w3.org/2000/svg" version="1.1" xmlns:xlink="http://www.w3.org/1999/xlink" xmlns:svgjs="http://svgjs.dev/svgjs" width="155" height="41" viewBox="0 0 2000 237"><g transform="matrix(1,0,0,1,-1.2121212121212466,-0.1412636250704935)"><svg viewBox="0 0 396 47" data-background-color="#111111" preserveAspectRatio="xMidYMid meet" height="237" width="155" xmlns="http://www.w3.org/2000/svg" xmlns:xlink="http://www.w3.org/1999/xlink"><g id="tight-bounds" transform="matrix(1,0,0,1,0.2400000000000091,0.02801430539372518)"><svg viewBox="0 0 395.52 46.943971389212535" height="46.943971389212535" width="395.52"><g><svg viewBox="0 0 481.848386942553 57.19022272089761" height="46.943971389212535" width="395.52"><g><rect width="5.131814234109846" height="57.19022272089761" x="67.76250403276298" y="0" fill="#ffffff" opacity="1" stroke-width="0" stroke="transparent" fill-opacity="1" class="rect-qz-0" data-fill-palette-color="primary" rx="1%" id="qz-0" data-palette-color="#ffffff"></rect></g><g transform="matrix(1,0,0,1,86.32838694255304,0.14226423562412194)"><svg viewBox="0 0 395.52 56.905694249649365" height="56.905694249649365" width="395.52"><g id="textblocktransform"><svg viewBox="0 0 395.52 56.905694249649365" height="56.905694249649365" width="395.52" id="textblock"><g><svg viewBox="0 0 395.52 56.905694249649365" height="56.905694249649365" width="395.52"><g transform="matrix(1,0,0,1,0,0)"><svg width="395.52" viewBox="0.73 -29.52 208.87 30.06" height="56.905694249649365" data-palette-color="#ffffff"><path d="M26.98-28.98Q27.81-28.98 28.16-28.6 28.52-28.22 28.52-27.32L28.52-27.32Q28.52-26.42 28.16-26.04 27.81-25.66 26.98-25.66L26.98-25.66 25.76-25.66 26.39-3.32 27.71-3.32Q28.54-3.32 28.89-2.94 29.25-2.56 29.25-1.66L29.25-1.66Q29.25-0.76 28.89-0.38 28.54 0 27.71 0L27.71 0 20.04 0Q19.21 0 18.86-0.38 18.51-0.76 18.51-1.66L18.51-1.66Q18.51-2.56 18.86-2.94 19.21-3.32 20.04-3.32L20.04-3.32 22.75-3.32 22.22-23.32 17.24-9.4Q16.92-8.54 16.39-8.18 15.87-7.81 14.99-7.81L14.99-7.81Q14.11-7.81 13.59-8.18 13.06-8.54 12.74-9.4L12.74-9.4 7.74-23.32 7.23-3.32 9.94-3.32Q10.77-3.32 11.12-2.94 11.47-2.56 11.47-1.66L11.47-1.66Q11.47-0.76 11.12-0.38 10.77 0 9.94 0L9.94 0 2.27 0Q1.44 0 1.09-0.38 0.73-0.76 0.73-1.66L0.73-1.66Q0.73-2.56 1.09-2.94 1.44-3.32 2.27-3.32L2.27-3.32 3.59-3.32 4.2-25.66 3-25.66Q2.17-25.66 1.82-26.04 1.46-26.42 1.46-27.32L1.46-27.32Q1.46-28.22 1.82-28.6 2.17-28.98 3-28.98L3-28.98 8.15-28.98Q8.74-28.98 9.08-28.78 9.42-28.59 9.57-28.17L9.57-28.17 14.99-13.31 20.39-28.17Q20.65-28.98 21.83-28.98L21.83-28.98 26.98-28.98ZM55-10.5Q56-10.5 56.42-10.13 56.83-9.77 56.83-8.91L56.83-8.91 56.83-1.66Q56.83-0.76 56.48-0.38 56.13 0 55.3 0L55.3 0 33.47 0Q32.64 0 32.29-0.38 31.93-0.76 31.93-1.66L31.93-1.66Q31.93-2.56 32.29-2.94 32.64-3.32 33.47-3.32L33.47-3.32 35.96-3.32 35.96-25.66 33.47-25.66Q32.64-25.66 32.29-26.04 31.93-26.42 31.93-27.32L31.93-27.32Q31.93-28.22 32.29-28.6 32.64-28.98 33.47-28.98L33.47-28.98 54.81-28.98Q55.64-28.98 55.99-28.6 56.35-28.22 56.35-27.32L56.35-27.32 56.35-21.12Q56.35-20.26 55.93-19.9 55.52-19.53 54.51-19.53L54.51-19.53Q53.51-19.53 53.1-19.9 52.68-20.26 52.68-21.12L52.68-21.12 52.68-25.66 39.62-25.66 39.62-16.6 45.92-16.6 45.92-18.82Q45.92-19.68 46.3-20.04 46.68-20.41 47.65-20.41L47.65-20.41Q48.63-20.41 49.01-20.04 49.39-19.68 49.39-18.82L49.39-18.82 49.39-11.06Q49.39-10.21 49.01-9.84 48.63-9.47 47.65-9.47L47.65-9.47Q46.68-9.47 46.3-9.84 45.92-10.21 45.92-11.06L45.92-11.06 45.92-13.28 39.62-13.28 39.62-3.32 53.17-3.32 53.17-8.91Q53.17-9.77 53.59-10.13 54-10.5 55-10.5L55-10.5ZM84.05-29.52Q85.05-29.52 85.47-29.15 85.88-28.78 85.88-27.93L85.88-27.93 85.88-20.85Q85.88-20 85.47-19.63 85.05-19.26 84.05-19.26L84.05-19.26Q83.05-19.26 82.64-19.63 82.22-20 82.22-20.85L82.22-20.85Q82.22-22.31 81.43-23.46 80.63-24.61 79.1-25.26 77.56-25.9 75.43-25.9L75.43-25.9Q72.72-25.9 70.64-24.51 68.55-23.12 67.38-20.53 66.21-17.94 66.21-14.48L66.21-14.48Q66.21-11.01 67.32-8.44 68.43-5.86 70.47-4.47 72.5-3.08 75.19-3.08L75.19-3.08Q79.46-3.08 82.49-4.47L82.49-4.47 82.49-10.01 76.46-10.01Q75.63-10.01 75.28-10.39 74.92-10.77 74.92-11.67L74.92-11.67Q74.92-12.57 75.28-12.95 75.63-13.33 76.46-13.33L76.46-13.33 86.93-13.33Q87.76-13.33 88.12-12.95 88.47-12.57 88.47-11.67L88.47-11.67Q88.47-10.77 88.12-10.39 87.76-10.01 86.93-10.01L86.93-10.01 86.15-10.01 86.15-3.49Q86.15-2.29 85.27-1.81L85.27-1.81Q83.27-0.66 80.66-0.06 78.05 0.54 75.19 0.54L75.19 0.54Q71.38 0.54 68.46-1.33 65.55-3.2 63.95-6.6 62.35-10.01 62.35-14.48L62.35-14.48Q62.35-18.92 64-22.34 65.64-25.76 68.56-27.64 71.48-29.52 75.19-29.52L75.19-29.52Q77.49-29.52 79.26-28.8 81.03-28.08 82.22-26.73L82.22-26.73 82.22-27.93Q82.22-28.78 82.64-29.15 83.05-29.52 84.05-29.52L84.05-29.52ZM116.42-28.98Q117.25-28.98 117.61-28.6 117.96-28.22 117.96-27.32L117.96-27.32Q117.96-26.42 117.61-26.04 117.25-25.66 116.42-25.66L116.42-25.66 114.67-25.66 114.67-3.32 116.42-3.32Q117.25-3.32 117.61-2.94 117.96-2.56 117.96-1.66L117.96-1.66Q117.96-0.76 117.61-0.38 117.25 0 116.42 0L116.42 0 108.76 0Q107.93 0 107.57-0.38 107.22-0.76 107.22-1.66L107.22-1.66Q107.22-2.56 107.57-2.94 107.93-3.32 108.76-3.32L108.76-3.32 111-3.32 111-13.28 98.85-13.28 98.85-3.32 101.09-3.32Q101.92-3.32 102.28-2.94 102.63-2.56 102.63-1.66L102.63-1.66Q102.63-0.76 102.28-0.38 101.92 0 101.09 0L101.09 0 93.43 0Q92.6 0 92.24-0.38 91.89-0.76 91.89-1.66L91.89-1.66Q91.89-2.56 92.24-2.94 92.6-3.32 93.43-3.32L93.43-3.32 95.18-3.32 95.18-25.66 93.43-25.66Q92.6-25.66 92.24-26.04 91.89-26.42 91.89-27.32L91.89-27.32Q91.89-28.22 92.24-28.6 92.6-28.98 93.43-28.98L93.43-28.98 101.09-28.98Q101.92-28.98 102.28-28.6 102.63-28.22 102.63-27.32L102.63-27.32Q102.63-26.42 102.28-26.04 101.92-25.66 101.09-25.66L101.09-25.66 98.85-25.66 98.85-16.6 111-16.6 111-25.66 108.76-25.66Q107.93-25.66 107.57-26.04 107.22-26.42 107.22-27.32L107.22-27.32Q107.22-28.22 107.57-28.6 107.93-28.98 108.76-28.98L108.76-28.98 116.42-28.98ZM135.54-28.98Q136.51-28.98 137.11-28.6 137.71-28.22 138-27.39L138-27.39 146.62-3.32 148.11-3.32Q148.94-3.32 149.29-2.94 149.65-2.56 149.65-1.66L149.65-1.66Q149.65-0.76 149.29-0.38 148.94 0 148.11 0L148.11 0 139.47 0Q138.64 0 138.28-0.38 137.93-0.76 137.93-1.66L137.93-1.66Q137.93-2.56 138.28-2.94 138.64-3.32 139.47-3.32L139.47-3.32 142.76-3.32 140.76-9.13 128.92-9.13 126.89-3.32 129.85-3.32Q130.68-3.32 131.03-2.94 131.39-2.56 131.39-1.66L131.39-1.66Q131.39-0.76 131.03-0.38 130.68 0 129.85 0L129.85 0 121.69 0Q120.86 0 120.51-0.38 120.16-0.76 120.16-1.66L120.16-1.66Q120.16-2.56 120.51-2.94 120.86-3.32 121.69-3.32L121.69-3.32 123.06-3.32 131.14-25.66 126.58-25.66Q125.75-25.66 125.39-26.04 125.04-26.42 125.04-27.32L125.04-27.32Q125.04-28.22 125.39-28.6 125.75-28.98 126.58-28.98L126.58-28.98 135.54-28.98ZM135.1-25.66L134.63-25.66 130.07-12.45 139.64-12.45 135.1-25.66ZM176.62-28.98Q177.45-28.98 177.81-28.6 178.16-28.22 178.16-27.32L178.16-27.32Q178.16-26.42 177.81-26.04 177.45-25.66 176.62-25.66L176.62-25.66 175.23-25.66 175.23-0.9Q175.23-0.24 174.78 0.15 174.33 0.54 173.4 0.54L173.4 0.54Q172.11 0.54 171.35-0.81L171.35-0.81 158.68-23.44 158.58-23.44 158.58-3.32 162.02-3.32Q162.85-3.32 163.21-2.94 163.56-2.56 163.56-1.66L163.56-1.66Q163.56-0.76 163.21-0.38 162.85 0 162.02 0L162.02 0 153.38 0Q152.55 0 152.2-0.38 151.84-0.76 151.84-1.66L151.84-1.66Q151.84-2.56 152.2-2.94 152.55-3.32 153.38-3.32L153.38-3.32 155.02-3.32 155.02-25.66 153.14-25.66Q152.31-25.66 151.95-26.04 151.6-26.42 151.6-27.32L151.6-27.32Q151.6-28.22 151.95-28.6 152.31-28.98 153.14-28.98L153.14-28.98 158.61-28.98Q159.14-28.98 159.47-28.81 159.8-28.64 160-28.3L160-28.3 171.57-7.59 171.67-7.59 171.67-25.66 168.71-25.66Q167.88-25.66 167.53-26.04 167.18-26.42 167.18-27.32L167.18-27.32Q167.18-28.22 167.53-28.6 167.88-28.98 168.71-28.98L168.71-28.98 176.62-28.98ZM195.49-28.98Q196.47-28.98 197.07-28.6 197.67-28.22 197.96-27.39L197.96-27.39 206.58-3.32 208.07-3.32Q208.9-3.32 209.25-2.94 209.6-2.56 209.6-1.66L209.6-1.66Q209.6-0.76 209.25-0.38 208.9 0 208.07 0L208.07 0 199.42 0Q198.59 0 198.24-0.38 197.89-0.76 197.89-1.66L197.89-1.66Q197.89-2.56 198.24-2.94 198.59-3.32 199.42-3.32L199.42-3.32 202.72-3.32 200.72-9.13 188.88-9.13 186.85-3.32 189.8-3.32Q190.63-3.32 190.99-2.94 191.34-2.56 191.34-1.66L191.34-1.66Q191.34-0.76 190.99-0.38 190.63 0 189.8 0L189.8 0 181.65 0Q180.82 0 180.47-0.38 180.11-0.76 180.11-1.66L180.11-1.66Q180.11-2.56 180.47-2.94 180.82-3.32 181.65-3.32L181.65-3.32 183.02-3.32 191.1-25.66 186.53-25.66Q185.7-25.66 185.35-26.04 184.99-26.42 184.99-27.32L184.99-27.32Q184.99-28.22 185.35-28.6 185.7-28.98 186.53-28.98L186.53-28.98 195.49-28.98ZM195.05-25.66L194.59-25.66 190.02-12.45 199.59-12.45 195.05-25.66Z" opacity="1" transform="matrix(1,0,0,1,0,0)" fill="#ffffff" class="wordmark-text-0" data-fill-palette-color="primary" id="text-0"></path></svg></g></svg></g></svg></g></svg></g><g transform="matrix(1,0,0,1,0,0.14226423562412194)"><svg viewBox="0 0 54.328435357082746 56.905694249649365" height="56.905694249649365" width="54.328435357082746"><g><svg version="1.0" xmlns="http://www.w3.org/2000/svg" xmlns:xlink="http://www.w3.org/1999/xlink" x="0" y="0" viewBox="0 0 95.471 100" enable-background="new 0 0 95.471 100" xml:space="preserve" width="54.328435357082746" height="56.905694249649365" class="icon-icon-0" data-fill-palette-color="accent" id="icon-0"><path d="M47.735 0c-0.083 2.825-1.738 13.412-19.799 30.934C10.554 47.797 2.439 49.824 0 50c2.439 0.178 10.554 2.204 27.936 19.066C45.997 86.589 47.652 97.177 47.735 100c0.083-2.823 1.739-13.411 19.798-30.934C84.917 52.204 93.031 50.178 95.471 50c-2.439-0.176-10.554-2.203-27.938-19.066C49.475 13.412 47.819 2.825 47.735 0z" fill="#ffffff" data-fill-palette-color="accent"></path></svg></g></svg></g></svg></g><defs></defs></svg><rect width="395.52" height="46.943971389212535" fill="none" stroke="none" visibility="hidden"></rect></g></svg></g></svg>